# xmcd CD database file
#
# Track frame offsets:
#	150
#	16357
#	31902
#	52012
#	68222
#	84715
#
# Disc length: 1279 seconds
#
# Revision: 0
# Processed by: cddbd v1.4PL0 Copyright (c) Steve Scherf et al.
# Submitted via: CDex 1.50Beta7
#
DISCID=4904fd06
DTITLE=Suzanne Gitzi - Special Limited Edition Collection
DYEAR=1997
DGENRE=Country
TTITLE0=Talk Of The Town
TTITLE1=The Runaround
TTITLE2=House Without a Soul
TTITLE3=Judge and Jury
TTITLE4=Miss Opportunity
TTITLE5=Painting The Town
EXTD=YEAR: 1997
EXTT0=
EXTT1=
EXTT2=
EXTT3=
EXTT4=
EXTT5=
PLAYORDER=
